<svg xmlns="http://www.w3.org/2000/svg" viewBox="0 0 1400 1050" font-family="Segoe UI, Arial, sans-serif">
  <defs>
    <filter id="shadow" x="-2%" y="-2%" width="104%" height="104%">
      <feDropShadow dx="2" dy="2" stdDeviation="3" flood-opacity="0.15"/>
    </filter>
    <linearGradient id="headerGrad" x1="0%" y1="0%" x2="100%" y2="0%">
      <stop offset="0%" style="stop-color:#1a1a2e"/>
      <stop offset="100%" style="stop-color:#16213e"/>
    </linearGradient>
    <linearGradient id="portalGrad" x1="0%" y1="0%" x2="0%" y2="100%">
      <stop offset="0%" style="stop-color:#667eea"/>
      <stop offset="100%" style="stop-color:#764ba2"/>
    </linearGradient>
    <linearGradient id="adminGrad" x1="0%" y1="0%" x2="0%" y2="100%">
      <stop offset="0%" style="stop-color:#f093fb"/>
      <stop offset="100%" style="stop-color:#f5576c"/>
    </linearGradient>
    <linearGradient id="controlGrad" x1="0%" y1="0%" x2="0%" y2="100%">
      <stop offset="0%" style="stop-color:#4facfe"/>
      <stop offset="100%" style="stop-color:#00f2fe"/>
    </linearGradient>
    <linearGradient id="identityGrad" x1="0%" y1="0%" x2="0%" y2="100%">
      <stop offset="0%" style="stop-color:#43e97b"/>
      <stop offset="100%" style="stop-color:#38f9d7"/>
    </linearGradient>
    <linearGradient id="dataGrad" x1="0%" y1="0%" x2="0%" y2="100%">
      <stop offset="0%" style="stop-color:#fa709a"/>
      <stop offset="100%" style="stop-color:#fee140"/>
    </linearGradient>
    <linearGradient id="analyticsGrad" x1="0%" y1="0%" x2="0%" y2="100%">
      <stop offset="0%" style="stop-color:#a18cd1"/>
      <stop offset="100%" style="stop-color:#fbc2eb"/>
    </linearGradient>
    <linearGradient id="infraGrad" x1="0%" y1="0%" x2="0%" y2="100%">
      <stop offset="0%" style="stop-color:#ffecd2"/>
      <stop offset="100%" style="stop-color:#fcb69f"/>
    </linearGradient>
  </defs>

  <!-- Background -->
  <rect width="1400" height="1050" fill="#f8f9fc" rx="8"/>

  <!-- Title -->
  <rect x="0" y="0" width="1400" height="60" fill="url(#headerGrad)" rx="8"/>
  <text x="700" y="38" text-anchor="middle" fill="white" font-size="22" font-weight="bold">API GATEWAY PLATFORM — HIGH-LEVEL ARCHITECTURE</text>

  <!-- ============ CONSUMERS (Top) ============ -->
  <text x="50" y="95" fill="#333" font-size="14" font-weight="bold" text-decoration="underline">CONSUMERS</text>

  <!-- Web Apps -->
  <rect x="50" y="110" width="130" height="55" rx="8" fill="#e8eaf6" stroke="#5c6bc0" stroke-width="1.5" filter="url(#shadow)"/>
  <text x="115" y="135" text-anchor="middle" fill="#283593" font-size="12" font-weight="bold">Web Apps</text>
  <text x="115" y="152" text-anchor="middle" fill="#5c6bc0" font-size="10">SPA / SSR</text>

  <!-- Mobile Apps -->
  <rect x="200" y="110" width="130" height="55" rx="8" fill="#e8eaf6" stroke="#5c6bc0" stroke-width="1.5" filter="url(#shadow)"/>
  <text x="265" y="135" text-anchor="middle" fill="#283593" font-size="12" font-weight="bold">Mobile Apps</text>
  <text x="265" y="152" text-anchor="middle" fill="#5c6bc0" font-size="10">iOS / Android</text>

  <!-- Third Party -->
  <rect x="350" y="110" width="130" height="55" rx="8" fill="#e8eaf6" stroke="#5c6bc0" stroke-width="1.5" filter="url(#shadow)"/>
  <text x="415" y="135" text-anchor="middle" fill="#283593" font-size="12" font-weight="bold">3rd Party</text>
  <text x="415" y="152" text-anchor="middle" fill="#5c6bc0" font-size="10">Partners / B2B</text>

  <!-- IoT -->
  <rect x="500" y="110" width="130" height="55" rx="8" fill="#e8eaf6" stroke="#5c6bc0" stroke-width="1.5" filter="url(#shadow)"/>
  <text x="565" y="135" text-anchor="middle" fill="#283593" font-size="12" font-weight="bold">IoT Devices</text>
  <text x="565" y="152" text-anchor="middle" fill="#5c6bc0" font-size="10">MQTT / HTTP</text>

  <!-- AI Agents -->
  <rect x="650" y="110" width="130" height="55" rx="8" fill="#e8eaf6" stroke="#5c6bc0" stroke-width="1.5" filter="url(#shadow)"/>
  <text x="715" y="135" text-anchor="middle" fill="#283593" font-size="12" font-weight="bold">AI Agents</text>
  <text x="715" y="152" text-anchor="middle" fill="#5c6bc0" font-size="10">LLM / MCP</text>

  <!-- Internal Services -->
  <rect x="800" y="110" width="130" height="55" rx="8" fill="#e8eaf6" stroke="#5c6bc0" stroke-width="1.5" filter="url(#shadow)"/>
  <text x="865" y="135" text-anchor="middle" fill="#283593" font-size="12" font-weight="bold">Internal Svcs</text>
  <text x="865" y="152" text-anchor="middle" fill="#5c6bc0" font-size="10">Microservices</text>

  <!-- Arrows from consumers down -->
  <line x1="415" y1="165" x2="415" y2="195" stroke="#5c6bc0" stroke-width="2" marker-end="url(#arrowBlue)"/>
  <defs><marker id="arrowBlue" markerWidth="10" markerHeight="7" refX="10" refY="3.5" orient="auto"><polygon points="0 0, 10 3.5, 0 7" fill="#5c6bc0"/></marker></defs>

  <!-- ============ AUTH LAYER ============ -->
  <text x="50" y="210" fill="#333" font-size="13" font-weight="bold">4 AUTH TYPES:</text>
  <rect x="175" y="195" width="95" height="24" rx="4" fill="#43e97b" opacity="0.9"/>
  <text x="222" y="212" text-anchor="middle" fill="#1a472a" font-size="10" font-weight="bold">API Key</text>
  <rect x="280" y="195" width="120" height="24" rx="4" fill="#4facfe" opacity="0.9"/>
  <text x="340" y="212" text-anchor="middle" fill="#0d3b66" font-size="10" font-weight="bold">OAuth2 / JWT</text>
  <rect x="410" y="195" width="75" height="24" rx="4" fill="#fa709a" opacity="0.9"/>
  <text x="447" y="212" text-anchor="middle" fill="#5a1a2a" font-size="10" font-weight="bold">mTLS</text>
  <rect x="495" y="195" width="95" height="24" rx="4" fill="#fbc2eb" opacity="0.9"/>
  <text x="542" y="212" text-anchor="middle" fill="#4a1a3a" font-size="10" font-weight="bold">Basic Auth</text>

  <!-- ============ PRESENTATION LAYER ============ -->
  <rect x="30" y="235" width="620" height="85" rx="10" fill="none" stroke="#9e9e9e" stroke-width="1" stroke-dasharray="6,3"/>
  <text x="45" y="255" fill="#666" font-size="11" font-weight="bold">PRESENTATION LAYER (Frontend)</text>

  <!-- Developer Portal -->
  <rect x="45" y="265" width="180" height="45" rx="8" fill="url(#portalGrad)" filter="url(#shadow)"/>
  <text x="135" y="286" text-anchor="middle" fill="white" font-size="12" font-weight="bold">Developer Portal</text>
  <text x="135" y="301" text-anchor="middle" fill="#e8daef" font-size="9">React / Angular</text>

  <!-- Admin Dashboard -->
  <rect x="240" y="265" width="180" height="45" rx="8" fill="url(#adminGrad)" filter="url(#shadow)"/>
  <text x="330" y="286" text-anchor="middle" fill="white" font-size="12" font-weight="bold">Admin Dashboard</text>
  <text x="330" y="301" text-anchor="middle" fill="#fce4ec" font-size="9">React / Angular</text>

  <!-- Login / Auth UI -->
  <rect x="435" y="265" width="200" height="45" rx="8" fill="url(#identityGrad)" filter="url(#shadow)"/>
  <text x="535" y="286" text-anchor="middle" fill="#1a472a" font-size="12" font-weight="bold">Identity UI (Login/Reg/MFA)</text>
  <text x="535" y="301" text-anchor="middle" fill="#2d6a4f" font-size="9">Served by identity-service</text>

  <!-- ============ CONTROL PLANE ============ -->
  <rect x="30" y="340" width="920" height="195" rx="10" fill="#e3f2fd" stroke="#42a5f5" stroke-width="1.5"/>
  <text x="45" y="362" fill="#1565c0" font-size="13" font-weight="bold">CONTROL PLANE (Spring Boot Microservices)</text>

  <!-- Management API -->
  <rect x="45" y="375" width="200" height="145" rx="8" fill="white" stroke="#42a5f5" stroke-width="1.5" filter="url(#shadow)"/>
  <rect x="45" y="375" width="200" height="28" rx="8" fill="url(#controlGrad)"/>
  <text x="145" y="394" text-anchor="middle" fill="white" font-size="12" font-weight="bold">Management API</text>
  <text x="55" y="418" fill="#333" font-size="9">- API Lifecycle Manager</text>
  <text x="55" y="432" fill="#333" font-size="9">- Policy Manager</text>
  <text x="55" y="446" fill="#333" font-size="9">- Subscription Manager</text>
  <text x="55" y="460" fill="#333" font-size="9">- Environment Manager</text>
  <text x="55" y="474" fill="#333" font-size="9">- Migration Engine</text>
  <text x="55" y="488" fill="#333" font-size="9">- Approval Workflows</text>
  <text x="55" y="502" fill="#333" font-size="9">- Gateway Config Push</text>

  <!-- Identity Service -->
  <rect x="260" y="375" width="220" height="145" rx="8" fill="white" stroke="#43e97b" stroke-width="2" filter="url(#shadow)"/>
  <rect x="260" y="375" width="220" height="28" rx="8" fill="url(#identityGrad)"/>
  <text x="370" y="394" text-anchor="middle" fill="#1a472a" font-size="12" font-weight="bold">Identity Service</text>
  <text x="270" y="418" fill="#333" font-size="9">- Spring Authorization Server</text>
  <text x="270" y="432" fill="#333" font-size="9">  (OAuth2 / OIDC Provider)</text>
  <text x="270" y="446" fill="#333" font-size="9">- User Management (Custom)</text>
  <text x="270" y="460" fill="#333" font-size="9">- Org / Tenant Mgmt (Custom)</text>
  <text x="270" y="474" fill="#333" font-size="9">- RBAC Engine (3-Level Scope)</text>
  <text x="270" y="488" fill="#333" font-size="9">- MFA (TOTP / SMS / Email OTP)</text>
  <text x="270" y="502" fill="#333" font-size="9">- API Key Mgmt / Brute-Force</text>

  <!-- Analytics Service -->
  <rect x="495" y="375" width="200" height="145" rx="8" fill="white" stroke="#a18cd1" stroke-width="1.5" filter="url(#shadow)"/>
  <rect x="495" y="375" width="200" height="28" rx="8" fill="url(#analyticsGrad)"/>
  <text x="595" y="394" text-anchor="middle" fill="#4a148c" font-size="12" font-weight="bold">Analytics Service</text>
  <text x="505" y="418" fill="#333" font-size="9">- Real-time Metrics</text>
  <text x="505" y="432" fill="#333" font-size="9">- Historical Analytics</text>
  <text x="505" y="446" fill="#333" font-size="9">- Usage &amp; Billing</text>
  <text x="505" y="460" fill="#333" font-size="9">- AI Anomaly Detection</text>
  <text x="505" y="474" fill="#333" font-size="9">- Alerting Engine</text>
  <text x="505" y="488" fill="#333" font-size="9">- SLA Monitoring</text>
  <text x="505" y="502" fill="#333" font-size="9">- Token Cost Tracking (AI)</text>

  <!-- Notification Service -->
  <rect x="710" y="375" width="225" height="70" rx="8" fill="white" stroke="#ff9800" stroke-width="1.5" filter="url(#shadow)"/>
  <rect x="710" y="375" width="225" height="28" rx="8" fill="#ff9800"/>
  <text x="822" y="394" text-anchor="middle" fill="white" font-size="12" font-weight="bold">Notification Service</text>
  <text x="720" y="418" fill="#333" font-size="9">- Email (Spring Mail)</text>
  <text x="720" y="432" fill="#333" font-size="9">- Webhook, Slack, In-App</text>

  <!-- Governance Service -->
  <rect x="710" y="455" width="225" height="65" rx="8" fill="white" stroke="#8bc34a" stroke-width="1.5" filter="url(#shadow)"/>
  <rect x="710" y="455" width="225" height="28" rx="8" fill="#8bc34a"/>
  <text x="822" y="474" text-anchor="middle" fill="white" font-size="12" font-weight="bold">Governance Service</text>
  <text x="720" y="498" fill="#333" font-size="9">- API Linting, Scoring, Design-First</text>

  <!-- ============ DATA PLANE ============ -->
  <rect x="30" y="555" width="920" height="200" rx="10" fill="#fce4ec" stroke="#ef5350" stroke-width="1.5"/>
  <text x="45" y="577" fill="#c62828" font-size="13" font-weight="bold">DATA PLANE (Gateway Runtime — High Performance, Independently Scalable)</text>

  <!-- Gateway Node 1 -->
  <rect x="45" y="590" width="280" height="150" rx="8" fill="white" stroke="#ef5350" stroke-width="1.5" filter="url(#shadow)"/>
  <rect x="45" y="590" width="280" height="28" rx="8" fill="url(#dataGrad)"/>
  <text x="185" y="609" text-anchor="middle" fill="white" font-size="12" font-weight="bold">Gateway Runtime Node (x N)</text>
  <text x="55" y="633" fill="#333" font-size="9">REQUEST PIPELINE:</text>
  <text x="55" y="648" fill="#555" font-size="9">1. TLS Termination / mTLS</text>
  <text x="55" y="663" fill="#555" font-size="9">2. Auth (API Key / JWT / mTLS / Basic)</text>
  <text x="55" y="678" fill="#555" font-size="9">3. Rate Limiting / Throttling</text>
  <text x="55" y="693" fill="#555" font-size="9">4. Request Validation / Transform</text>
  <text x="55" y="708" fill="#555" font-size="9">5. Route -> Load Balance -> Upstream</text>
  <text x="55" y="723" fill="#555" font-size="9">6. Response Transform -> Cache -> Return</text>

  <!-- AI Gateway -->
  <rect x="340" y="590" width="195" height="150" rx="8" fill="white" stroke="#7c4dff" stroke-width="1.5" filter="url(#shadow)"/>
  <rect x="340" y="590" width="195" height="28" rx="8" fill="#7c4dff"/>
  <text x="437" y="609" text-anchor="middle" fill="white" font-size="12" font-weight="bold">AI / LLM Gateway</text>
  <text x="350" y="633" fill="#333" font-size="9">- LLM Provider Routing</text>
  <text x="350" y="648" fill="#333" font-size="9">- Token Rate Limiting</text>
  <text x="350" y="663" fill="#333" font-size="9">- Content Safety Guards</text>
  <text x="350" y="678" fill="#333" font-size="9">- Semantic Caching</text>
  <text x="350" y="693" fill="#333" font-size="9">- MCP Tool Gateway</text>
  <text x="350" y="708" fill="#333" font-size="9">- Prompt Injection Filter</text>

  <!-- Event Gateway -->
  <rect x="550" y="590" width="185" height="150" rx="8" fill="white" stroke="#00bcd4" stroke-width="1.5" filter="url(#shadow)"/>
  <rect x="550" y="590" width="185" height="28" rx="8" fill="#00bcd4"/>
  <text x="642" y="609" text-anchor="middle" fill="white" font-size="12" font-weight="bold">Event Gateway</text>
  <text x="560" y="633" fill="#333" font-size="9">- Kafka Proxy</text>
  <text x="560" y="648" fill="#333" font-size="9">- RabbitMQ Proxy</text>
  <text x="560" y="663" fill="#333" font-size="9">- MQTT Proxy</text>
  <text x="560" y="678" fill="#333" font-size="9">- Protocol Mediation</text>
  <text x="560" y="693" fill="#333" font-size="9">  Kafka->WebSocket</text>
  <text x="560" y="708" fill="#333" font-size="9">  Kafka->SSE/REST</text>

  <!-- Protocol Support Box -->
  <rect x="750" y="590" width="185" height="150" rx="8" fill="white" stroke="#795548" stroke-width="1.5" filter="url(#shadow)"/>
  <rect x="750" y="590" width="185" height="28" rx="8" fill="#795548"/>
  <text x="842" y="609" text-anchor="middle" fill="white" font-size="12" font-weight="bold">Multi-Protocol</text>
  <text x="760" y="633" fill="#333" font-size="9">- REST (HTTP/1.1, HTTP/2)</text>
  <text x="760" y="648" fill="#333" font-size="9">- SOAP / XML-WS</text>
  <text x="760" y="663" fill="#333" font-size="9">- GraphQL</text>
  <text x="760" y="678" fill="#333" font-size="9">- gRPC (protobuf)</text>
  <text x="760" y="693" fill="#333" font-size="9">- WebSocket / SSE</text>
  <text x="760" y="708" fill="#333" font-size="9">- JSON-RPC / OData</text>

  <!-- ============ INFRASTRUCTURE ============ -->
  <rect x="30" y="775" width="920" height="110" rx="10" fill="#fff3e0" stroke="#ff9800" stroke-width="1.5"/>
  <text x="45" y="797" fill="#e65100" font-size="13" font-weight="bold">INFRASTRUCTURE LAYER</text>

  <!-- Database -->
  <rect x="45" y="808" width="130" height="60" rx="8" fill="white" stroke="#ff9800" stroke-width="1" filter="url(#shadow)"/>
  <text x="110" y="830" text-anchor="middle" fill="#e65100" font-size="11" font-weight="bold">PostgreSQL</text>
  <text x="110" y="846" text-anchor="middle" fill="#666" font-size="9">Users, APIs, Subs</text>
  <text x="110" y="858" text-anchor="middle" fill="#666" font-size="9">Policies, Audit</text>

  <!-- Redis -->
  <rect x="190" y="808" width="130" height="60" rx="8" fill="white" stroke="#f44336" stroke-width="1" filter="url(#shadow)"/>
  <text x="255" y="830" text-anchor="middle" fill="#c62828" font-size="11" font-weight="bold">Redis</text>
  <text x="255" y="846" text-anchor="middle" fill="#666" font-size="9">Sessions, Cache</text>
  <text x="255" y="858" text-anchor="middle" fill="#666" font-size="9">Rate Limits, Keys</text>

  <!-- Event Bus -->
  <rect x="335" y="808" width="130" height="60" rx="8" fill="white" stroke="#4caf50" stroke-width="1" filter="url(#shadow)"/>
  <text x="400" y="830" text-anchor="middle" fill="#2e7d32" font-size="11" font-weight="bold">Kafka</text>
  <text x="400" y="846" text-anchor="middle" fill="#666" font-size="9">Event Bus, Async</text>
  <text x="400" y="858" text-anchor="middle" fill="#666" font-size="9">APIs, Streaming</text>

  <!-- Search -->
  <rect x="480" y="808" width="130" height="60" rx="8" fill="white" stroke="#ff9800" stroke-width="1" filter="url(#shadow)"/>
  <text x="545" y="830" text-anchor="middle" fill="#e65100" font-size="11" font-weight="bold">Elasticsearch</text>
  <text x="545" y="846" text-anchor="middle" fill="#666" font-size="9">API Catalog Search</text>
  <text x="545" y="858" text-anchor="middle" fill="#666" font-size="9">Log Search</text>

  <!-- Vector DB -->
  <rect x="625" y="808" width="130" height="60" rx="8" fill="white" stroke="#7c4dff" stroke-width="1" filter="url(#shadow)"/>
  <text x="690" y="830" text-anchor="middle" fill="#4a148c" font-size="11" font-weight="bold">Vector DB</text>
  <text x="690" y="846" text-anchor="middle" fill="#666" font-size="9">Semantic Cache</text>
  <text x="690" y="858" text-anchor="middle" fill="#666" font-size="9">(AI Gateway)</text>

  <!-- Monitoring -->
  <rect x="770" y="808" width="165" height="60" rx="8" fill="white" stroke="#009688" stroke-width="1" filter="url(#shadow)"/>
  <text x="852" y="830" text-anchor="middle" fill="#00695c" font-size="11" font-weight="bold">Prometheus/Grafana</text>
  <text x="852" y="846" text-anchor="middle" fill="#666" font-size="9">Metrics, Dashboards</text>
  <text x="852" y="858" text-anchor="middle" fill="#666" font-size="9">Alerts, Tracing</text>

  <!-- ============ UPSTREAM SERVICES (Right Side) ============ -->
  <rect x="980" y="235" width="390" height="650" rx="10" fill="#f3e5f5" stroke="#9c27b0" stroke-width="1.5"/>
  <text x="1175" y="257" text-anchor="middle" fill="#6a1b9a" font-size="13" font-weight="bold">UPSTREAM / BACKEND SERVICES</text>

  <rect x="1000" y="270" width="165" height="45" rx="6" fill="white" stroke="#9c27b0" stroke-width="1" filter="url(#shadow)"/>
  <text x="1082" y="290" text-anchor="middle" fill="#6a1b9a" font-size="11" font-weight="bold">REST APIs</text>
  <text x="1082" y="305" text-anchor="middle" fill="#666" font-size="9">Microservices</text>

  <rect x="1185" y="270" width="165" height="45" rx="6" fill="white" stroke="#9c27b0" stroke-width="1" filter="url(#shadow)"/>
  <text x="1267" y="290" text-anchor="middle" fill="#6a1b9a" font-size="11" font-weight="bold">SOAP Services</text>
  <text x="1267" y="305" text-anchor="middle" fill="#666" font-size="9">Legacy / Enterprise</text>

  <rect x="1000" y="325" width="165" height="45" rx="6" fill="white" stroke="#9c27b0" stroke-width="1" filter="url(#shadow)"/>
  <text x="1082" y="345" text-anchor="middle" fill="#6a1b9a" font-size="11" font-weight="bold">GraphQL APIs</text>
  <text x="1082" y="360" text-anchor="middle" fill="#666" font-size="9">Federated / Standalone</text>

  <rect x="1185" y="325" width="165" height="45" rx="6" fill="white" stroke="#9c27b0" stroke-width="1" filter="url(#shadow)"/>
  <text x="1267" y="345" text-anchor="middle" fill="#6a1b9a" font-size="11" font-weight="bold">gRPC Services</text>
  <text x="1267" y="360" text-anchor="middle" fill="#666" font-size="9">High-perf Internal</text>

  <rect x="1000" y="385" width="350" height="45" rx="6" fill="white" stroke="#7c4dff" stroke-width="1.5" filter="url(#shadow)"/>
  <text x="1175" y="405" text-anchor="middle" fill="#4a148c" font-size="11" font-weight="bold">LLM Providers</text>
  <text x="1175" y="420" text-anchor="middle" fill="#666" font-size="9">OpenAI | Anthropic | Gemini | Bedrock | Azure AI | Self-hosted</text>

  <rect x="1000" y="445" width="350" height="45" rx="6" fill="white" stroke="#00bcd4" stroke-width="1.5" filter="url(#shadow)"/>
  <text x="1175" y="465" text-anchor="middle" fill="#006064" font-size="11" font-weight="bold">Message Brokers</text>
  <text x="1175" y="480" text-anchor="middle" fill="#666" font-size="9">Kafka | RabbitMQ | MQTT | Solace | Pulsar</text>

  <rect x="1000" y="505" width="165" height="45" rx="6" fill="white" stroke="#9c27b0" stroke-width="1" filter="url(#shadow)"/>
  <text x="1082" y="525" text-anchor="middle" fill="#6a1b9a" font-size="11" font-weight="bold">WebSocket Svcs</text>
  <text x="1082" y="540" text-anchor="middle" fill="#666" font-size="9">Real-time / Chat</text>

  <rect x="1185" y="505" width="165" height="45" rx="6" fill="white" stroke="#9c27b0" stroke-width="1" filter="url(#shadow)"/>
  <text x="1267" y="525" text-anchor="middle" fill="#6a1b9a" font-size="11" font-weight="bold">SSE Endpoints</text>
  <text x="1267" y="540" text-anchor="middle" fill="#666" font-size="9">Event Streams</text>

  <!-- External Identity -->
  <rect x="1000" y="575" width="350" height="45" rx="6" fill="#e8f5e9" stroke="#43e97b" stroke-width="1.5" filter="url(#shadow)"/>
  <text x="1175" y="595" text-anchor="middle" fill="#1b5e20" font-size="11" font-weight="bold">External Identity Providers</text>
  <text x="1175" y="610" text-anchor="middle" fill="#2e7d32" font-size="9">Google | GitHub | Azure AD | Corporate SAML IdP | LDAP / AD</text>

  <!-- External Gateways (Federation) -->
  <rect x="1000" y="635" width="350" height="45" rx="6" fill="#e0f7fa" stroke="#00bcd4" stroke-width="1.5" filter="url(#shadow)"/>
  <text x="1175" y="655" text-anchor="middle" fill="#006064" font-size="11" font-weight="bold">Federated Gateways</text>
  <text x="1175" y="670" text-anchor="middle" fill="#00838f" font-size="9">AWS API GW | Azure APIM | Kong | Apigee</text>

  <!-- Monitoring External -->
  <rect x="1000" y="695" width="350" height="45" rx="6" fill="#fff8e1" stroke="#ffc107" stroke-width="1.5" filter="url(#shadow)"/>
  <text x="1175" y="715" text-anchor="middle" fill="#f57f17" font-size="11" font-weight="bold">Observability Stack</text>
  <text x="1175" y="730" text-anchor="middle" fill="#f9a825" font-size="9">Jaeger | Zipkin | OpenTelemetry | ELK | Datadog</text>

  <!-- Git / CI-CD -->
  <rect x="1000" y="755" width="350" height="45" rx="6" fill="#eceff1" stroke="#607d8b" stroke-width="1.5" filter="url(#shadow)"/>
  <text x="1175" y="775" text-anchor="middle" fill="#37474f" font-size="11" font-weight="bold">GitOps / CI-CD</text>
  <text x="1175" y="790" text-anchor="middle" fill="#546e7a" font-size="9">GitHub | GitLab | Jenkins | Terraform | K8s Operator</text>

  <!-- Service Mesh -->
  <rect x="1000" y="815" width="350" height="45" rx="6" fill="#e8eaf6" stroke="#5c6bc0" stroke-width="1.5" filter="url(#shadow)"/>
  <text x="1175" y="835" text-anchor="middle" fill="#283593" font-size="11" font-weight="bold">Service Mesh</text>
  <text x="1175" y="850" text-anchor="middle" fill="#3f51b5" font-size="9">Istio | Linkerd | Consul Connect</text>

  <!-- ============ ARROWS ============ -->
  <!-- Control plane to Data plane -->
  <line x1="490" y1="535" x2="490" y2="555" stroke="#42a5f5" stroke-width="2" stroke-dasharray="5,3"/>
  <text x="500" y="548" fill="#1565c0" font-size="9">config push</text>

  <!-- Data plane to upstreams -->
  <line x1="935" y1="660" x2="980" y2="660" stroke="#9c27b0" stroke-width="2" marker-end="url(#arrowPurple)"/>
  <defs><marker id="arrowPurple" markerWidth="10" markerHeight="7" refX="10" refY="3.5" orient="auto"><polygon points="0 0, 10 3.5, 0 7" fill="#9c27b0"/></marker></defs>

  <!-- Identity to external IdPs -->
  <line x1="480" y1="450" x2="1000" y2="597" stroke="#43e97b" stroke-width="1.5" stroke-dasharray="5,3"/>

  <!-- ============ ENVIRONMENTS (Bottom) ============ -->
  <rect x="30" y="905" width="920" height="55" rx="8" fill="white" stroke="#607d8b" stroke-width="1.5"/>
  <text x="45" y="925" fill="#37474f" font-size="12" font-weight="bold">ENVIRONMENTS (Full Stack per Environment):</text>

  <rect x="55" y="935" width="180" height="20" rx="4" fill="#c8e6c9"/>
  <text x="145" y="950" text-anchor="middle" fill="#2e7d32" font-size="10" font-weight="bold">DEV (1 node)</text>

  <rect x="250" y="935" width="180" height="20" rx="4" fill="#bbdefb"/>
  <text x="340" y="950" text-anchor="middle" fill="#1565c0" font-size="10" font-weight="bold">UAT (2 nodes)</text>

  <rect x="445" y="935" width="180" height="20" rx="4" fill="#ffe0b2"/>
  <text x="535" y="950" text-anchor="middle" fill="#e65100" font-size="10" font-weight="bold">PRE-PROD (2 nodes)</text>

  <rect x="640" y="935" width="180" height="20" rx="4" fill="#ffcdd2"/>
  <text x="730" y="950" text-anchor="middle" fill="#c62828" font-size="10" font-weight="bold">PROD (3+ nodes, HA)</text>

  <!-- Promotion arrows -->
  <text x="237" y="950" fill="#666" font-size="14">→</text>
  <text x="432" y="950" fill="#666" font-size="14">→</text>
  <text x="627" y="950" fill="#666" font-size="14">→</text>

  <!-- ============ LEGEND ============ -->
  <rect x="980" y="905" width="390" height="55" rx="8" fill="white" stroke="#9e9e9e" stroke-width="1"/>
  <text x="995" y="923" fill="#333" font-size="11" font-weight="bold">LEGEND</text>
  <rect x="995" y="930" width="12" height="12" fill="#e3f2fd" stroke="#42a5f5"/>
  <text x="1012" y="941" fill="#333" font-size="9">Control Plane</text>
  <rect x="1095" y="930" width="12" height="12" fill="#fce4ec" stroke="#ef5350"/>
  <text x="1112" y="941" fill="#333" font-size="9">Data Plane</text>
  <rect x="1195" y="930" width="12" height="12" fill="#e8f5e9" stroke="#43e97b"/>
  <text x="1212" y="941" fill="#333" font-size="9">Identity</text>
  <rect x="1275" y="930" width="12" height="12" fill="#f3e5f5" stroke="#9c27b0"/>
  <text x="1292" y="941" fill="#333" font-size="9">Upstream</text>

  <!-- Version -->
  <text x="1370" y="1040" text-anchor="end" fill="#999" font-size="9">v2.0 | 2026-03-25</text>
</svg>