<svg xmlns="http://www.w3.org/2000/svg" viewBox="0 0 48 48" width="48" height="48">
  <defs>
    <linearGradient id="g4" x1="0" y1="0" x2="0.5" y2="1">
      <stop offset="0%" stop-color="#1e3a5f"/>
      <stop offset="100%" stop-color="#0f172a"/>
    </linearGradient>
    <linearGradient id="g4b" x1="0" y1="0" x2="1" y2="1">
      <stop offset="0%" stop-color="#38bdf8"/>
      <stop offset="100%" stop-color="#818cf8"/>
    </linearGradient>
  </defs>
  <rect width="48" height="48" rx="12" fill="url(#g4)"/>
  <polygon points="24,6 40,15 40,33 24,42 8,33 8,15" fill="none" stroke="url(#g4b)" stroke-width="1.5"/>
  <polygon points="24,12 34,17.5 34,30.5 24,36 14,30.5 14,17.5" fill="none" stroke="rgba(255,255,255,0.15)" stroke-width="1"/>
  <path d="M15 18l4 12 5-9 5 9 4-12" fill="none" stroke="white" stroke-width="2.2" stroke-linecap="round" stroke-linejoin="round"/>
  <circle cx="24" cy="6" r="1.5" fill="#38bdf8"/>
  <circle cx="40" cy="15" r="1.5" fill="#818cf8"/>
  <circle cx="40" cy="33" r="1.5" fill="#818cf8"/>
  <circle cx="24" cy="42" r="1.5" fill="#38bdf8"/>
  <circle cx="8" cy="33" r="1.5" fill="#38bdf8"/>
  <circle cx="8" cy="15" r="1.5" fill="#38bdf8"/>
</svg>
